<svg width="145" height="38" viewBox="0 0 145 38" fill="none" xmlns="http://www.w3.org/2000/svg">
<rect width="144.478" height="38" rx="19" fill="white" fill-opacity="0.15"/>
<rect x="0.50964" y="0.50964" width="143.458" height="36.9807" rx="18.4904" stroke="url(#paint0_linear_2176_809)" stroke-opacity="0.2" stroke-width="1.01928"/>
<path d="M54.678 13.848V15.032H51.638V25H50.182V15.032H47.126V13.848H54.678ZM60.2943 25.144C59.4729 25.144 58.7263 24.9573 58.0543 24.584C57.3929 24.2107 56.8703 23.6827 56.4863 23C56.1129 22.3067 55.9263 21.5067 55.9263 20.6C55.9263 19.704 56.1183 18.9147 56.5023 18.232C56.8969 17.5387 57.4303 17.0107 58.1023 16.648C58.7743 16.2747 59.5263 16.088 60.3583 16.088C61.1903 16.088 61.9423 16.2747 62.6143 16.648C63.2863 17.0107 63.8143 17.5333 64.1983 18.216C64.5929 18.8987 64.7903 19.6933 64.7903 20.6C64.7903 21.5067 64.5876 22.3067 64.1823 23C63.7876 23.6827 63.2489 24.2107 62.5663 24.584C61.8836 24.9573 61.1263 25.144 60.2943 25.144ZM60.2943 23.864C60.8169 23.864 61.3076 23.7413 61.7663 23.496C62.2249 23.2507 62.5929 22.8827 62.8703 22.392C63.1583 21.9013 63.3023 21.304 63.3023 20.6C63.3023 19.896 63.1636 19.2987 62.8863 18.808C62.6089 18.3173 62.2463 17.9547 61.7983 17.72C61.3503 17.4747 60.8649 17.352 60.3423 17.352C59.8089 17.352 59.3183 17.4747 58.8703 17.72C58.4329 17.9547 58.0809 18.3173 57.8143 18.808C57.5476 19.2987 57.4143 19.896 57.4143 20.6C57.4143 21.3147 57.5423 21.9173 57.7983 22.408C58.0649 22.8987 58.4169 23.2667 58.8543 23.512C59.2916 23.7467 59.7716 23.864 60.2943 23.864ZM68.4807 17.432V22.6C68.4807 23.0267 68.5713 23.3307 68.7527 23.512C68.934 23.6827 69.2487 23.768 69.6967 23.768H70.7687V25H69.4567C68.646 25 68.038 24.8133 67.6327 24.44C67.2273 24.0667 67.0247 23.4533 67.0247 22.6V17.432H65.8887V16.232H67.0247V14.024H68.4807V16.232H70.7687V17.432H68.4807ZM71.9888 20.584C71.9888 19.688 72.1701 18.904 72.5328 18.232C72.8954 17.5493 73.3914 17.0213 74.0208 16.648C74.6608 16.2747 75.3701 16.088 76.1488 16.088C76.9168 16.088 77.5834 16.2533 78.1488 16.584C78.7141 16.9147 79.1354 17.3307 79.4128 17.832V16.232H80.8848V25H79.4128V23.368C79.1248 23.88 78.6928 24.3067 78.1168 24.648C77.5514 24.9787 76.8901 25.144 76.1328 25.144C75.3541 25.144 74.6501 24.952 74.0208 24.568C73.3914 24.184 72.8954 23.6453 72.5328 22.952C72.1701 22.2587 71.9888 21.4693 71.9888 20.584ZM79.4128 20.6C79.4128 19.9387 79.2794 19.3627 79.0128 18.872C78.7461 18.3813 78.3834 18.008 77.9248 17.752C77.4768 17.4853 76.9808 17.352 76.4368 17.352C75.8928 17.352 75.3968 17.48 74.9488 17.736C74.5008 17.992 74.1434 18.3653 73.8768 18.856C73.6101 19.3467 73.4768 19.9227 73.4768 20.584C73.4768 21.256 73.6101 21.8427 73.8768 22.344C74.1434 22.8347 74.5008 23.2133 74.9488 23.48C75.3968 23.736 75.8928 23.864 76.4368 23.864C76.9808 23.864 77.4768 23.736 77.9248 23.48C78.3834 23.2133 78.7461 22.8347 79.0128 22.344C79.2794 21.8427 79.4128 21.2613 79.4128 20.6ZM84.8013 13.16V25H83.3453V13.16H84.8013ZM87.7468 25.096C87.4694 25.096 87.2348 25 87.0428 24.808C86.8508 24.616 86.7548 24.3813 86.7548 24.104C86.7548 23.8267 86.8508 23.592 87.0428 23.4C87.2348 23.208 87.4694 23.112 87.7468 23.112C88.0134 23.112 88.2374 23.208 88.4188 23.4C88.6108 23.592 88.7068 23.8267 88.7068 24.104C88.7068 24.3813 88.6108 24.616 88.4188 24.808C88.2374 25 88.0134 25.096 87.7468 25.096ZM87.7468 18.248C87.4694 18.248 87.2348 18.152 87.0428 17.96C86.8508 17.768 86.7548 17.5333 86.7548 17.256C86.7548 16.9787 86.8508 16.744 87.0428 16.552C87.2348 16.36 87.4694 16.264 87.7468 16.264C88.0134 16.264 88.2374 16.36 88.4188 16.552C88.6108 16.744 88.7068 16.9787 88.7068 17.256C88.7068 17.5333 88.6108 17.768 88.4188 17.96C88.2374 18.152 88.0134 18.248 87.7468 18.248Z" fill="#DCDCDC"/>
<path d="M94.6507 16.216C94.7147 15.224 95.0933 14.4507 95.7867 13.896C96.4907 13.3413 97.3867 13.064 98.4747 13.064C99.2213 13.064 99.8667 13.1973 100.411 13.464C100.955 13.7307 101.365 14.0933 101.643 14.552C101.92 15.0107 102.059 15.528 102.059 16.104C102.059 16.7653 101.883 17.3307 101.531 17.8C101.179 18.2693 100.757 18.584 100.267 18.744V18.808C100.896 19 101.387 19.352 101.739 19.864C102.091 20.3653 102.267 21.0107 102.267 21.8C102.267 22.4293 102.123 22.9893 101.835 23.48C101.547 23.9707 101.12 24.36 100.555 24.648C99.9893 24.9253 99.312 25.064 98.5227 25.064C97.3707 25.064 96.4213 24.7707 95.6747 24.184C94.9387 23.5867 94.544 22.7333 94.4907 21.624H96.2507C96.2933 22.1893 96.512 22.6533 96.9067 23.016C97.3013 23.368 97.8347 23.544 98.5067 23.544C99.1573 23.544 99.6587 23.368 100.011 23.016C100.363 22.6533 100.539 22.1893 100.539 21.624C100.539 20.8773 100.299 20.3493 99.8187 20.04C99.3493 19.72 98.624 19.56 97.6427 19.56H97.2267V18.056H97.6587C98.5227 18.0453 99.1787 17.9013 99.6267 17.624C100.085 17.3467 100.315 16.9093 100.315 16.312C100.315 15.8 100.149 15.3947 99.8187 15.096C99.488 14.7867 99.0187 14.632 98.4107 14.632C97.8133 14.632 97.3493 14.7867 97.0187 15.096C96.688 15.3947 96.4907 15.768 96.4267 16.216H94.6507ZM105.191 22.52C106.215 21.6347 107.02 20.9093 107.607 20.344C108.204 19.768 108.7 19.1707 109.095 18.552C109.489 17.9333 109.687 17.3147 109.687 16.696C109.687 16.056 109.532 15.5547 109.223 15.192C108.924 14.8293 108.449 14.648 107.799 14.648C107.169 14.648 106.679 14.8507 106.327 15.256C105.985 15.6507 105.804 16.184 105.783 16.856H104.023C104.055 15.64 104.417 14.712 105.111 14.072C105.815 13.4213 106.705 13.096 107.783 13.096C108.945 13.096 109.852 13.416 110.503 14.056C111.164 14.696 111.495 15.5493 111.495 16.616C111.495 17.384 111.297 18.1253 110.903 18.84C110.519 19.544 110.055 20.1787 109.511 20.744C108.977 21.2987 108.295 21.944 107.463 22.68L106.743 23.32H111.815V24.84H104.039V23.512L105.191 22.52ZM113.417 19.016C113.417 17.1707 113.726 15.7307 114.345 14.696C114.974 13.6507 116.052 13.128 117.577 13.128C119.102 13.128 120.174 13.6507 120.793 14.696C121.422 15.7307 121.737 17.1707 121.737 19.016C121.737 20.8827 121.422 22.344 120.793 23.4C120.174 24.4453 119.102 24.968 117.577 24.968C116.052 24.968 114.974 24.4453 114.345 23.4C113.726 22.344 113.417 20.8827 113.417 19.016ZM119.945 19.016C119.945 18.152 119.886 17.4213 119.769 16.824C119.662 16.2267 119.438 15.7413 119.097 15.368C118.756 14.984 118.249 14.792 117.577 14.792C116.905 14.792 116.398 14.984 116.057 15.368C115.716 15.7413 115.486 16.2267 115.369 16.824C115.262 17.4213 115.209 18.152 115.209 19.016C115.209 19.912 115.262 20.664 115.369 21.272C115.476 21.88 115.7 22.3707 116.041 22.744C116.393 23.1173 116.905 23.304 117.577 23.304C118.249 23.304 118.756 23.1173 119.097 22.744C119.449 22.3707 119.678 21.88 119.785 21.272C119.892 20.664 119.945 19.912 119.945 19.016ZM123.667 19.016C123.667 17.1707 123.976 15.7307 124.595 14.696C125.224 13.6507 126.302 13.128 127.827 13.128C129.352 13.128 130.424 13.6507 131.043 14.696C131.672 15.7307 131.987 17.1707 131.987 19.016C131.987 20.8827 131.672 22.344 131.043 23.4C130.424 24.4453 129.352 24.968 127.827 24.968C126.302 24.968 125.224 24.4453 124.595 23.4C123.976 22.344 123.667 20.8827 123.667 19.016ZM130.195 19.016C130.195 18.152 130.136 17.4213 130.019 16.824C129.912 16.2267 129.688 15.7413 129.347 15.368C129.006 14.984 128.499 14.792 127.827 14.792C127.155 14.792 126.648 14.984 126.307 15.368C125.966 15.7413 125.736 16.2267 125.619 16.824C125.512 17.4213 125.459 18.152 125.459 19.016C125.459 19.912 125.512 20.664 125.619 21.272C125.726 21.88 125.95 22.3707 126.291 22.744C126.643 23.1173 127.155 23.304 127.827 23.304C128.499 23.304 129.006 23.1173 129.347 22.744C129.699 22.3707 129.928 21.88 130.035 21.272C130.142 20.664 130.195 19.912 130.195 19.016Z" fill="white"/>
<defs>
<linearGradient id="paint0_linear_2176_809" x1="72.2388" y1="-1.32174" x2="78.3049" y2="46.4097" gradientUnits="userSpaceOnUse">
<stop stop-color="white"/>
<stop offset="1" stop-color="white" stop-opacity="0"/>
</linearGradient>
</defs>
</svg>
