<svg width="145" height="38" viewBox="0 0 145 38" fill="none" xmlns="http://www.w3.org/2000/svg">
<rect x="47.4766" width="97" height="38" rx="19" fill="white" fill-opacity="0.15"/>
<rect x="47.9862" y="0.50964" width="95.9807" height="36.9807" rx="18.4904" stroke="url(#paint0_linear_2176_716)" stroke-opacity="0.2" stroke-width="1.01928"/>
<path d="M109.519 14.904H104.159V18.088C104.383 17.7893 104.714 17.5387 105.151 17.336C105.599 17.1333 106.074 17.032 106.575 17.032C107.471 17.032 108.196 17.224 108.751 17.608C109.316 17.992 109.716 18.4773 109.951 19.064C110.196 19.6507 110.319 20.2693 110.319 20.92C110.319 21.7093 110.164 22.4133 109.855 23.032C109.556 23.64 109.103 24.12 108.495 24.472C107.898 24.824 107.162 25 106.287 25C105.124 25 104.191 24.712 103.487 24.136C102.783 23.56 102.362 22.7973 102.223 21.848H103.999C104.116 22.3493 104.378 22.7493 104.783 23.048C105.188 23.336 105.695 23.48 106.303 23.48C107.06 23.48 107.626 23.2507 107.999 22.792C108.383 22.3333 108.575 21.7253 108.575 20.968C108.575 20.2 108.383 19.6133 107.999 19.208C107.615 18.792 107.05 18.584 106.303 18.584C105.78 18.584 105.338 18.7173 104.975 18.984C104.623 19.24 104.367 19.592 104.207 20.04H102.479V13.304H109.519V14.904ZM112.218 19.016C112.218 17.1707 112.527 15.7307 113.146 14.696C113.775 13.6507 114.852 13.128 116.378 13.128C117.903 13.128 118.975 13.6507 119.594 14.696C120.223 15.7307 120.538 17.1707 120.538 19.016C120.538 20.8827 120.223 22.344 119.594 23.4C118.975 24.4453 117.903 24.968 116.378 24.968C114.852 24.968 113.775 24.4453 113.146 23.4C112.527 22.344 112.218 20.8827 112.218 19.016ZM118.746 19.016C118.746 18.152 118.687 17.4213 118.57 16.824C118.463 16.2267 118.239 15.7413 117.898 15.368C117.556 14.984 117.05 14.792 116.378 14.792C115.706 14.792 115.199 14.984 114.858 15.368C114.516 15.7413 114.287 16.2267 114.17 16.824C114.063 17.4213 114.01 18.152 114.01 19.016C114.01 19.912 114.063 20.664 114.17 21.272C114.276 21.88 114.5 22.3707 114.842 22.744C115.194 23.1173 115.706 23.304 116.378 23.304C117.05 23.304 117.556 23.1173 117.898 22.744C118.25 22.3707 118.479 21.88 118.586 21.272C118.692 20.664 118.746 19.912 118.746 19.016ZM122.468 19.016C122.468 17.1707 122.777 15.7307 123.396 14.696C124.025 13.6507 125.102 13.128 126.628 13.128C128.153 13.128 129.225 13.6507 129.844 14.696C130.473 15.7307 130.788 17.1707 130.788 19.016C130.788 20.8827 130.473 22.344 129.844 23.4C129.225 24.4453 128.153 24.968 126.628 24.968C125.102 24.968 124.025 24.4453 123.396 23.4C122.777 22.344 122.468 20.8827 122.468 19.016ZM128.996 19.016C128.996 18.152 128.937 17.4213 128.82 16.824C128.713 16.2267 128.489 15.7413 128.148 15.368C127.806 14.984 127.3 14.792 126.628 14.792C125.956 14.792 125.449 14.984 125.108 15.368C124.766 15.7413 124.537 16.2267 124.42 16.824C124.313 17.4213 124.26 18.152 124.26 19.016C124.26 19.912 124.313 20.664 124.42 21.272C124.526 21.88 124.75 22.3707 125.092 22.744C125.444 23.1173 125.956 23.304 126.628 23.304C127.3 23.304 127.806 23.1173 128.148 22.744C128.5 22.3707 128.729 21.88 128.836 21.272C128.942 20.664 128.996 19.912 128.996 19.016Z" fill="white"/>
<defs>
<linearGradient id="paint0_linear_2176_716" x1="95.9766" y1="-1.32174" x2="104.84" y2="45.5029" gradientUnits="userSpaceOnUse">
<stop stop-color="white"/>
<stop offset="1" stop-color="white" stop-opacity="0"/>
</linearGradient>
</defs>
</svg>
