<svg width="24" height="24" viewBox="0 0 24 24" fill="none" xmlns="http://www.w3.org/2000/svg">
<path d="M12 0C18.6275 0 24 5.37306 24 12.0012C24 18.6281 18.6275 24 12 24C5.37252 24 0 18.6281 0 12.0012C0 5.37306 5.37252 0 12 0ZM7.75525 15.3405C7.68214 15.2476 7.59146 15.17 7.48838 15.1122C7.38529 15.0543 7.27183 15.0174 7.15446 15.0034C6.91742 14.9751 6.67888 15.0422 6.4913 15.1899C6.39842 15.263 6.32085 15.3537 6.26302 15.4568C6.20519 15.5599 6.16823 15.6734 6.15424 15.7907C6.12601 16.0278 6.19309 16.2664 6.34073 16.454C7.01395 17.3112 7.87331 18.004 8.85377 18.48C9.83423 18.9561 10.9101 19.2028 12 19.2017C13.0883 19.2028 14.1626 18.9567 15.1419 18.4819C16.1212 18.0072 16.9799 17.3162 17.6533 16.4612C17.7265 16.3684 17.7808 16.2622 17.813 16.1485C17.8452 16.0347 17.8547 15.9158 17.841 15.7984C17.8272 15.681 17.7905 15.5675 17.7328 15.4643C17.6752 15.3612 17.5978 15.2704 17.5051 15.1971C17.4124 15.1238 17.3061 15.0695 17.1924 15.0373C17.0787 15.0051 16.9598 14.9956 16.8424 15.0094C16.7251 15.0231 16.6116 15.0599 16.5084 15.1175C16.4052 15.1751 16.3144 15.2525 16.2412 15.3453C15.7363 15.9871 15.0922 16.5058 14.3574 16.8621C13.6227 17.2184 12.8166 17.4029 12 17.4019C10.3227 17.4019 8.77264 16.6339 7.75525 15.3405ZM8.40072 8.10159C8.20029 8.09592 8.00075 8.1305 7.81391 8.2033C7.62708 8.27609 7.45674 8.38561 7.31296 8.52539C7.16919 8.66517 7.0549 8.83237 6.97686 9.01709C6.89881 9.20181 6.85861 9.40031 6.85861 9.60084C6.85861 9.80137 6.89881 9.99987 6.97686 10.1846C7.0549 10.3693 7.16919 10.5365 7.31296 10.6763C7.45674 10.8161 7.62708 10.9256 7.81391 10.9984C8.00075 11.0712 8.20029 11.1058 8.40072 11.1001C8.79096 11.089 9.16152 10.9262 9.43364 10.6463C9.70577 10.3663 9.85801 9.99128 9.85801 9.60084C9.85801 9.2104 9.70577 8.83535 9.43364 8.55539C9.16152 8.27543 8.79096 8.11263 8.40072 8.10159ZM15.5993 8.10159C15.3988 8.09592 15.1993 8.1305 15.0125 8.2033C14.8256 8.27609 14.6553 8.38561 14.5115 8.52539C14.3677 8.66517 14.2535 8.83237 14.1754 9.01709C14.0974 9.20181 14.0572 9.40031 14.0572 9.60084C14.0572 9.80137 14.0974 9.99987 14.1754 10.1846C14.2535 10.3693 14.3677 10.5365 14.5115 10.6763C14.6553 10.8161 14.8256 10.9256 15.0125 10.9984C15.1993 11.0712 15.3988 11.1058 15.5993 11.1001C15.9895 11.089 16.3601 10.9262 16.6322 10.6463C16.9043 10.3663 17.0566 9.99128 17.0566 9.60084C17.0566 9.2104 16.9043 8.83535 16.6322 8.55539C16.3601 8.27543 15.9895 8.11263 15.5993 8.10159Z" fill="white"/>
</svg>
