<svg width="81" height="37" viewBox="0 0 81 37" fill="none" xmlns="http://www.w3.org/2000/svg">
<g filter="url(#filter0_d_2176_804)">
<path d="M67.5625 31L58.8125 23.5H13.5C7.97714 23.5 3.5 19.0229 3.5 13.5V11C3.50003 5.47716 7.97716 1.00003 13.5 1H67.25C72.7729 1 77.25 5.47715 77.25 11V13.5C77.25 19.0229 72.7729 23.5 67.25 23.5H67.5625V31Z" fill="white"/>
</g>
<path d="M22.44 9.02997C23.2 9.02997 23.8567 9.1733 24.41 9.45997C24.97 9.73997 25.3967 10.1433 25.69 10.67C25.99 11.1966 26.14 11.8166 26.14 12.53C26.14 13.2433 25.99 13.8633 25.69 14.39C25.3967 14.91 24.97 15.31 24.41 15.59C23.8567 15.8633 23.2 16 22.44 16H20.27V9.02997H22.44ZM22.44 15.25C23.34 15.25 24.0267 15.0133 24.5 14.54C24.9734 14.06 25.21 13.39 25.21 12.53C25.21 11.6633 24.97 10.9866 24.49 10.5C24.0167 10.0133 23.3334 9.76997 22.44 9.76997H21.18V15.25H22.44ZM29.7304 16.09C29.217 16.09 28.7504 15.9733 28.3304 15.74C27.917 15.5067 27.5904 15.1767 27.3504 14.75C27.117 14.3167 27.0003 13.8167 27.0003 13.25C27.0003 12.69 27.1204 12.1966 27.3604 11.77C27.607 11.3366 27.9404 11.0066 28.3604 10.78C28.7804 10.5466 29.2504 10.43 29.7704 10.43C30.2904 10.43 30.7604 10.5466 31.1804 10.78C31.6004 11.0066 31.9304 11.3333 32.1704 11.76C32.417 12.1866 32.5404 12.6833 32.5404 13.25C32.5404 13.8167 32.4137 14.3167 32.1604 14.75C31.9137 15.1767 31.577 15.5067 31.1504 15.74C30.7237 15.9733 30.2504 16.09 29.7304 16.09ZM29.7304 15.29C30.057 15.29 30.3637 15.2133 30.6504 15.06C30.937 14.9067 31.167 14.6767 31.3404 14.37C31.5204 14.0633 31.6104 13.69 31.6104 13.25C31.6104 12.81 31.5237 12.4366 31.3504 12.13C31.177 11.8233 30.9504 11.5966 30.6704 11.45C30.3904 11.2966 30.087 11.22 29.7604 11.22C29.427 11.22 29.1204 11.2966 28.8404 11.45C28.567 11.5966 28.347 11.8233 28.1804 12.13C28.0137 12.4366 27.9304 12.81 27.9304 13.25C27.9304 13.6967 28.0104 14.0733 28.1704 14.38C28.337 14.6867 28.557 14.9167 28.8304 15.07C29.1037 15.2167 29.4037 15.29 29.7304 15.29ZM38.5969 10.52V16H37.6869V15.19C37.5136 15.47 37.2702 15.69 36.9569 15.85C36.6502 16.0033 36.3102 16.08 35.9369 16.08C35.5102 16.08 35.1269 15.9933 34.7869 15.82C34.4469 15.64 34.1769 15.3733 33.9769 15.02C33.7835 14.6667 33.6869 14.2367 33.6869 13.73V10.52H34.5869V13.61C34.5869 14.15 34.7235 14.5667 34.9969 14.86C35.2702 15.1467 35.6435 15.29 36.1169 15.29C36.6035 15.29 36.9869 15.14 37.2669 14.84C37.5469 14.54 37.6869 14.1033 37.6869 13.53V10.52H38.5969ZM41.0434 11.54C41.2301 11.2133 41.5034 10.9466 41.8634 10.74C42.2234 10.5333 42.6334 10.43 43.0934 10.43C43.5867 10.43 44.0301 10.5466 44.4234 10.78C44.8167 11.0133 45.1267 11.3433 45.3534 11.77C45.5801 12.19 45.6934 12.68 45.6934 13.24C45.6934 13.7933 45.5801 14.2867 45.3534 14.72C45.1267 15.1533 44.8134 15.49 44.4134 15.73C44.0201 15.97 43.5801 16.09 43.0934 16.09C42.6201 16.09 42.2034 15.9867 41.8434 15.78C41.4901 15.5733 41.2234 15.31 41.0434 14.99V16H40.1334V8.59996H41.0434V11.54ZM44.7634 13.24C44.7634 12.8267 44.6801 12.4666 44.5134 12.16C44.3467 11.8533 44.1201 11.62 43.8334 11.46C43.5534 11.3 43.2434 11.22 42.9034 11.22C42.5701 11.22 42.2601 11.3033 41.9734 11.47C41.6934 11.63 41.4667 11.8666 41.2934 12.18C41.1267 12.4866 41.0434 12.8433 41.0434 13.25C41.0434 13.6633 41.1267 14.0267 41.2934 14.34C41.4667 14.6467 41.6934 14.8833 41.9734 15.05C42.2601 15.21 42.5701 15.29 42.9034 15.29C43.2434 15.29 43.5534 15.21 43.8334 15.05C44.1201 14.8833 44.3467 14.6467 44.5134 14.34C44.6801 14.0267 44.7634 13.66 44.7634 13.24ZM47.8012 8.59996V16H46.8912V8.59996H47.8012ZM54.3522 13.05C54.3522 13.2233 54.3422 13.4067 54.3222 13.6H49.9422C49.9755 14.14 50.1589 14.5633 50.4922 14.87C50.8322 15.17 51.2422 15.32 51.7222 15.32C52.1155 15.32 52.4422 15.23 52.7022 15.05C52.9689 14.8633 53.1555 14.6167 53.2622 14.31H54.2422C54.0955 14.8367 53.8022 15.2667 53.3622 15.6C52.9222 15.9267 52.3755 16.09 51.7222 16.09C51.2022 16.09 50.7355 15.9733 50.3222 15.74C49.9155 15.5067 49.5955 15.1767 49.3622 14.75C49.1288 14.3167 49.0122 13.8167 49.0122 13.25C49.0122 12.6833 49.1255 12.1866 49.3522 11.76C49.5788 11.3333 49.8955 11.0066 50.3022 10.78C50.7155 10.5466 51.1889 10.43 51.7222 10.43C52.2422 10.43 52.7022 10.5433 53.1022 10.77C53.5022 10.9966 53.8089 11.31 54.0222 11.71C54.2422 12.1033 54.3522 12.55 54.3522 13.05ZM53.4122 12.86C53.4122 12.5133 53.3355 12.2166 53.1822 11.97C53.0289 11.7166 52.8189 11.5266 52.5522 11.4C52.2922 11.2666 52.0022 11.2 51.6822 11.2C51.2222 11.2 50.8289 11.3466 50.5022 11.64C50.1822 11.9333 49.9988 12.34 49.9522 12.86H53.4122ZM57.3334 8.93996C57.9934 8.93996 58.5267 9.12663 58.9334 9.49997C59.3401 9.8733 59.5434 10.3733 59.5434 11C59.5434 11.7 59.3267 12.22 58.8934 12.56C58.4601 12.8933 57.8734 13.06 57.1334 13.06L57.1034 14.01H56.3134L56.2734 12.43H56.5634C57.2234 12.43 57.7401 12.33 58.1134 12.13C58.4867 11.93 58.6734 11.5533 58.6734 11C58.6734 10.6 58.5534 10.2833 58.3134 10.05C58.0734 9.81664 57.7501 9.69997 57.3434 9.69997C56.9301 9.69997 56.6034 9.8133 56.3634 10.04C56.1301 10.26 56.0134 10.5633 56.0134 10.95H55.1534C55.1534 10.55 55.2434 10.2 55.4234 9.89997C55.6034 9.5933 55.8567 9.35663 56.1834 9.18997C56.5167 9.0233 56.9001 8.93996 57.3334 8.93996ZM56.7034 16.06C56.5301 16.06 56.3834 16 56.2634 15.88C56.1434 15.76 56.0834 15.6133 56.0834 15.44C56.0834 15.2667 56.1434 15.12 56.2634 15C56.3834 14.88 56.5301 14.82 56.7034 14.82C56.8701 14.82 57.0101 14.88 57.1234 15C57.2434 15.12 57.3034 15.2667 57.3034 15.44C57.3034 15.6133 57.2434 15.76 57.1234 15.88C57.0101 16 56.8701 16.06 56.7034 16.06Z" fill="#0F0D26"/>
<defs>
<filter id="filter0_d_2176_804" x="-1.74046e-05" y="-5.00679e-06" width="80.75" height="37" filterUnits="userSpaceOnUse" color-interpolation-filters="sRGB">
<feFlood flood-opacity="0" result="BackgroundImageFix"/>
<feColorMatrix in="SourceAlpha" type="matrix" values="0 0 0 0 0 0 0 0 0 0 0 0 0 0 0 0 0 0 127 0" result="hardAlpha"/>
<feOffset dy="2.50001"/>
<feGaussianBlur stdDeviation="1.75001"/>
<feComposite in2="hardAlpha" operator="out"/>
<feColorMatrix type="matrix" values="0 0 0 0 0 0 0 0 0 0 0 0 0 0 0 0 0 0 0.19 0"/>
<feBlend mode="normal" in2="BackgroundImageFix" result="effect1_dropShadow_2176_804"/>
<feBlend mode="normal" in="SourceGraphic" in2="effect1_dropShadow_2176_804" result="shape"/>
</filter>
</defs>
</svg>
