<svg width="20" height="21" viewBox="0 0 20 21" fill="none" xmlns="http://www.w3.org/2000/svg">
<path d="M8.83471 11.6608H2.07392C1.53823 11.6608 1.0999 12.1029 1.0999 12.6433V20.0175C1.0999 20.5579 1.53823 21 2.07392 21H8.94839C9.17752 21 9.17752 20.7517 9.17752 20.7517V11.9947C9.17745 11.9947 9.17745 11.6608 8.83471 11.6608ZM17.9262 11.6608H11.1722C10.7609 11.6608 10.8225 12.093 10.8225 12.093V20.7597C10.8225 20.7597 10.8191 20.9998 11.0666 20.9998H17.926C18.4617 20.9998 18.9 20.5577 18.9 20.0173V12.6433C18.9002 12.1029 18.4618 11.6608 17.9262 11.6608ZM9.17745 5.85862C9.17745 5.85862 9.17745 5.52569 8.85131 5.52569H0.974018C0.438329 5.52569 0 5.96785 0 6.50814V9.57503C0 10.1154 0.438329 10.5575 0.974018 10.5575H8.87799C9.17745 10.5575 9.17745 10.2955 9.17745 10.2955V5.85862ZM19.026 5.52569H11.1236C10.8226 5.52569 10.8226 5.81495 10.8226 5.81495V10.3016C10.8226 10.3016 10.8226 10.5575 11.1885 10.5575H19.026C19.5617 10.5575 20 10.1154 20 9.57503V6.50814C20 5.96785 19.5617 5.52569 19.026 5.52569ZM5.86461 4.79879C5.41898 4.79879 5.01194 4.76314 4.655 4.69278C3.7484 4.51411 3.12529 4.16637 2.75004 3.6298C2.41383 3.14892 2.31093 2.55609 2.44413 1.86769C2.67745 0.663269 3.47931 0 4.70184 0C4.96056 0 5.24469 0.0301356 5.54642 0.0896194C6.31394 0.24087 7.29562 0.684815 8.17249 1.27715C9.6602 2.28222 9.73379 2.90705 9.65971 3.28965C9.55078 3.85184 9.02985 4.25356 8.06712 4.51783C7.41668 4.69636 6.6139 4.79879 5.86461 4.79879ZM4.70191 1.57471C4.22845 1.57471 4.06574 1.70814 3.9764 2.16962C3.90331 2.54692 3.99549 2.6787 4.02572 2.72201C4.15231 2.90311 4.48207 3.05415 4.95432 3.14713C5.20914 3.19738 5.524 3.22394 5.86454 3.22394C6.6134 3.22394 7.27313 3.10948 7.71089 2.98428C7.74275 2.97519 7.79221 2.93718 7.7392 2.90533C7.1669 2.43504 6.11986 1.80706 5.24711 1.63505C5.0438 1.59511 4.8603 1.57471 4.70191 1.57471ZM14.158 4.79879H14.1578C13.4085 4.79879 12.6058 4.69636 11.9554 4.51783C10.9926 4.25363 10.4717 3.85184 10.3628 3.28972C10.2888 2.90712 10.3622 2.28229 11.8501 1.27722C12.7268 0.684887 13.7085 0.240942 14.4761 0.089691C14.7779 0.0302072 15.062 7.1581e-05 15.3205 7.1581e-05C16.5433 7.1581e-05 17.3451 0.663413 17.5782 1.86783C17.7116 2.55616 17.6087 3.14899 17.2725 3.62987C16.8972 4.16651 16.2742 4.51418 15.3674 4.69285C15.0106 4.76307 14.6035 4.79879 14.158 4.79879ZM12.2958 2.89559C12.245 2.9253 12.2696 2.97219 12.2959 2.97984C12.7335 3.10676 13.4002 3.22401 14.1578 3.22401C14.4985 3.22401 14.8132 3.19745 15.0681 3.1472C15.5403 3.05415 15.8702 2.90318 15.9967 2.72208C16.0271 2.67878 16.1193 2.54699 16.046 2.16969C15.9568 1.70821 15.794 1.57478 15.3204 1.57478C15.1621 1.57478 14.9788 1.59511 14.7753 1.6352C13.9025 1.80713 12.8681 2.42524 12.2958 2.89559Z" fill="white"/>
</svg>
